<svg width="64" height="59" viewBox="0 0 64 59" fill="none" xmlns="http://www.w3.org/2000/svg">
<path d="M20 19.3055C20 19.3055 19.0609 13.4892 17.4957 15.0755C15.9305 16.6618 17.4957 19.0412 17.4957 19.0412L18.7479 20.363L20 19.5699V19.3055Z" fill="#9F616A"/>
<path d="M22.4402 20.8944C22.4402 20.8944 19.9076 18.3709 19.4011 18.8297C18.8945 19.2885 17.375 19.5179 17.6282 20.4356C17.8815 21.3532 23.2 24.3356 23.2 24.3356L22.4402 20.8944Z" fill="#6C63FF"/>
<path opacity="0.1" d="M22.4402 20.8944C22.4402 20.8944 19.9076 18.3709 19.4011 18.8297C18.8945 19.2885 17.375 19.5179 17.6282 20.4356C17.8815 21.3532 23.2 24.3356 23.2 24.3356L22.4402 20.8944Z" fill="black"/>
<path d="M36.783 20.363V22.3937C36.783 22.3937 37.0553 26.9628 35.4213 26.709C33.7873 26.4552 34.6043 22.6476 34.6043 22.6476L34.8766 20.363L36.783 20.363Z" fill="#9F616A"/>
<path d="M35.806 34.6644C35.806 34.6644 37.9878 38.1291 38.7151 38.3765C39.4424 38.624 43.3212 40.8513 43.806 43.0785L47.2 47.5331L45.503 49.7603C45.503 49.7603 37.7454 41.3462 35.5636 40.6038C33.3818 39.8614 31.2 36.1493 31.2 36.1493L35.806 34.6644Z" fill="#9F616A"/>
<path d="M18.371 29.1028C18.371 29.1028 13.7483 29.8576 14.4782 32.8768C15.2081 35.8959 22.2639 42.1859 22.2639 42.1859L22.5072 43.6955L25.1835 44.1987L26.4 42.9407L26.1567 42.1859C26.1567 42.1859 23.2371 39.4183 22.9938 38.4119C22.7505 37.4055 20.0741 33.38 18.8576 33.1284L20.5608 32.122L18.371 29.1028Z" fill="#9F616A"/>
<path d="M47.0054 47.8159C47.0054 47.8159 46.1405 46.368 47.4378 46.6093C48.7351 46.8506 49.6 47.0919 49.6 48.0573C49.6 49.0226 48.5189 55.7799 47.2216 55.2972C45.9243 54.8146 47.0054 52.6426 47.0054 52.6426C47.0054 52.6426 46.3567 50.7119 45.9243 50.4706C45.4919 50.2293 45.4919 49.0226 45.9243 49.0226C46.3567 49.0226 47.2216 48.2986 47.0054 47.8159Z" fill="#2F2E41"/>
<path d="M26.0385 42.3832C26.0385 42.3832 26.0385 41.1049 26.9976 42.3832C27.9568 43.6615 28.4363 44.6842 27.4772 45.4512C26.5181 46.2182 23.1612 48.0078 23.1612 48.0078C23.1612 48.0078 19.5645 48.7748 20.044 46.9852C20.044 46.9852 22.4418 45.7069 22.4418 44.6842C22.4418 43.6615 22.4418 41.8719 23.1612 42.3832C23.8805 42.8945 26.0385 43.1502 26.0385 42.3832Z" fill="#2F2E41"/>
<path d="M30.3395 23.5411C30.3395 23.5411 33.7046 24.0401 33.4643 29.0298C33.4643 29.0298 37.7909 33.5205 36.5891 35.0174C35.3872 36.5143 32.7432 39.2586 31.7817 38.5102C30.8202 37.7617 27.9358 32.0236 27.9358 32.0236C27.9358 32.0236 21.2055 34.5184 20.0037 33.271C18.8018 32.0236 17.6 29.0298 17.6 29.0298L23.6092 25.7865L30.3395 23.5411Z" fill="#2F2E41"/>
<path d="M20.8 10.0343C22.5673 10.0343 24 8.78928 24 7.25348C24 5.71767 22.5673 4.47266 20.8 4.47266C19.0327 4.47266 17.6 5.71767 17.6 7.25348C17.6 8.78928 19.0327 10.0343 20.8 10.0343Z" fill="#9F616A"/>
<path d="M23.3036 7.65063C23.3036 7.65063 25.056 10.3106 25.5567 10.5524C26.0574 10.7942 22.0518 13.2123 22.0518 13.2123C22.0518 13.2123 22.0518 10.0687 20.8 9.34331L23.3036 7.65063Z" fill="#9F616A"/>
<path d="M23.4445 9.62213C23.4445 9.62213 27.291 8.38321 28.0122 10.3655C28.7334 12.3477 30.4163 16.0645 30.1759 18.5423C29.9355 21.0202 29.4547 20.5246 30.1759 21.268C30.8971 22.0113 31.3779 21.5157 31.1375 22.5069C30.8971 23.498 30.6567 23.498 30.8971 23.9936C31.1375 24.4891 28.0122 26.2236 25.3678 26.4714L22.7233 26.7192C22.7233 26.7192 22.7233 22.2591 22.2425 21.268C21.7617 20.2768 20.8 18.2946 20.8 17.5512V15.5844C20.8 14.2753 21.1315 12.9888 21.7617 11.8522C21.7617 11.8522 23.2041 9.62213 23.4445 9.62213Z" fill="#6C63FF"/>
<path d="M26.2071 10.8287C26.2071 10.8287 35.5372 11.5891 36.5459 14.1235C37.5545 16.6579 38.0589 21.7267 37.0502 21.7267C36.0415 21.7267 34.7807 22.2336 34.5286 21.7267C34.2764 21.2199 33.2677 16.151 33.0156 16.151C32.7634 16.151 25.1985 15.3907 25.1985 15.3907C25.1985 15.3907 21.9204 11.3356 26.2071 10.8287Z" fill="#6C63FF"/>
<path d="M20.7307 6.10227C20.7307 6.10227 19.9825 4.84536 19.0472 5.9371C18.112 7.02884 16.5905 5.02257 16.8241 4.59448C17.0577 4.16638 17.8825 4.61372 19.2959 4.16705C20.7094 3.72038 23.4322 2.81042 23.8882 5.77874C24.3442 8.74706 23.2582 8.43587 23.2582 8.43587C23.2582 8.43587 22.7604 5.80563 22.3105 6.56115L21.8605 7.31667L21.4703 7.40952L20.7307 6.10227Z" fill="#2F2E41"/>
</svg>
